<?xml version="1.0" encoding="UTF-8" standalone="no"?>
<!-- Created with Inkscape (http://www.inkscape.org/) -->

<svg
   xmlns:dc="http://purl.org/dc/elements/1.1/"
   xmlns:cc="http://creativecommons.org/ns#"
   xmlns:rdf="http://www.w3.org/1999/02/22-rdf-syntax-ns#"
   xmlns:svg="http://www.w3.org/2000/svg"
   xmlns="http://www.w3.org/2000/svg"
   xmlns:sodipodi="http://sodipodi.sourceforge.net/DTD/sodipodi-0.dtd"
   xmlns:inkscape="http://www.inkscape.org/namespaces/inkscape"
   width="366.48419"
   height="529.68445"
   id="svg5535"
   version="1.1"
   inkscape:version="0.48.2 r9819"
   sodipodi:docname="mascot.svg"
   inkscape:export-filename="C:\Users\DevilChicken\Desktop\mascot.png"
   inkscape:export-xdpi="90"
   inkscape:export-ydpi="90">
  <defs
     id="defs5537">
    <clipPath
       clipPathUnits="userSpaceOnUse"
       id="clipPath6100">
      <rect
         style="fill:#d24313;fill-opacity:1;stroke:none"
         id="rect6102"
         width="407.14285"
         height="602.14288"
         x="-362.85715"
         y="-526.92352" />
    </clipPath>
  </defs>
  <sodipodi:namedview
     id="base"
     pagecolor="#ffffff"
     bordercolor="#666666"
     borderopacity="1.0"
     inkscape:pageopacity="0.0"
     inkscape:pageshadow="2"
     inkscape:zoom="1.4"
     inkscape:cx="208.32173"
     inkscape:cy="265.6084"
     inkscape:document-units="px"
     inkscape:current-layer="layer1"
     showgrid="false"
     showguides="true"
     inkscape:guide-bbox="true"
     fit-margin-top="0"
     fit-margin-left="0"
     fit-margin-right="0"
     fit-margin-bottom="0"
     inkscape:window-width="1920"
     inkscape:window-height="1058"
     inkscape:window-x="1272"
     inkscape:window-y="-8"
     inkscape:window-maximized="1" />
  <metadata
     id="metadata5540">
    <rdf:RDF>
      <cc:Work
         rdf:about="">
        <dc:format>image/svg+xml</dc:format>
        <dc:type
           rdf:resource="http://purl.org/dc/dcmitype/StillImage" />
        <dc:title></dc:title>
      </cc:Work>
    </rdf:RDF>
  </metadata>
  <g
     inkscape:label="Layer 1"
     inkscape:groupmode="layer"
     id="layer1"
     transform="translate(541.96379,461.62785)">
    <g
       id="g6289">
      <path
         transform="matrix(0.94560717,0,0,0.94560717,-287.06356,-11.96368)"
         d="m -208.57143,-117.63782 c 0,15.38508 -12.47207,27.857146 -27.85714,27.857146 -15.38508,0 -27.85715,-12.472066 -27.85715,-27.857146 0,-15.38507 12.47207,-27.85714 27.85715,-27.85714 15.38507,0 27.85714,12.47207 27.85714,27.85714 z"
         sodipodi:ry="27.857143"
         sodipodi:rx="27.857143"
         sodipodi:cy="-117.63782"
         sodipodi:cx="-236.42857"
         id="path6114-9"
         style="fill:#e5a001;fill-opacity:1;stroke:#000000;stroke-width:10.57521629;stroke-miterlimit:4;stroke-opacity:1;stroke-dasharray:none"
         sodipodi:type="arc" />
      <path
         transform="matrix(0.94560717,0,0,0.94560717,-21.898514,-9.6908358)"
         d="m -208.57143,-117.63782 c 0,15.38508 -12.47207,27.857146 -27.85714,27.857146 -15.38508,0 -27.85715,-12.472066 -27.85715,-27.857146 0,-15.38507 12.47207,-27.85714 27.85715,-27.85714 15.38507,0 27.85714,12.47207 27.85714,27.85714 z"
         sodipodi:ry="27.857143"
         sodipodi:rx="27.857143"
         sodipodi:cy="-117.63782"
         sodipodi:cx="-236.42857"
         id="path6114-9-1"
         style="fill:#e5a001;fill-opacity:1;stroke:#000000;stroke-width:10.57521629;stroke-miterlimit:4;stroke-opacity:1;stroke-dasharray:none"
         sodipodi:type="arc" />
      <path
         sodipodi:nodetypes="cssssc"
         inkscape:connector-curvature="0"
         id="path6205"
         d="m -390.50085,-52.84301 c 0,0 33.85578,7.937906 60.18321,-74.54264 26.75553,-83.82164 69.74524,-145.26243 -30.06583,-167.04313 -31.57451,-6.89018 -79.76819,2.18662 -95.91418,26.80352 -19.6589,29.97284 -1.67525,90.20903 5.14633,123.72163 12.54394,61.625125 31.55963,94.783532 60.65047,91.06062 z"
         style="fill:#ffffff;fill-opacity:1;stroke:#000000;stroke-width:10;stroke-linecap:butt;stroke-linejoin:miter;stroke-miterlimit:4;stroke-opacity:1;stroke-dasharray:none" />
      <path
         sodipodi:nodetypes="csssc"
         inkscape:connector-curvature="0"
         id="path6211"
         d="m -395.72725,-296.444 c -3.78807,3.78807 -35.60789,15.15228 -32.57743,44.69925 3.03046,29.54696 25.00128,59.85153 27.27412,59.85153 2.27284,0 43.18402,-86.36804 43.18402,-84.0952 0,2.27285 4.54568,-8.33375 1.51523,-15.9099"
         style="fill:#e5a001;fill-opacity:1;stroke:#000000;stroke-width:10;stroke-linecap:butt;stroke-linejoin:round;stroke-miterlimit:4;stroke-opacity:1;stroke-dasharray:none" />
      <path
         sodipodi:nodetypes="csc"
         inkscape:connector-curvature="0"
         id="path6215"
         d="m -405.07117,-293.03474 c 21.18661,-5.99218 44.31031,-5.10599 46.80562,3.74754 1.94703,6.90816 -2.10637,17.84447 -2.10637,17.84447"
         style="fill:none;stroke:#000000;stroke-width:10;stroke-linecap:butt;stroke-linejoin:miter;stroke-miterlimit:4;stroke-opacity:1;stroke-dasharray:none" />
      <path
         sodipodi:nodetypes="ccccccc"
         inkscape:connector-curvature="0"
         id="path6217"
         d="m -398.75772,-201.99474 0.28423,-10.39232 0.76486,-6.05105 2.32815,-7.65791 0.90103,-8.08758 0.79229,-6.95331 0.23274,-9.34515"
         style="fill:none;stroke:#000000;stroke-width:5;stroke-linecap:round;stroke-linejoin:round;stroke-miterlimit:4;stroke-opacity:1;stroke-dasharray:none" />
      <path
         sodipodi:nodetypes="cc"
         inkscape:connector-curvature="0"
         id="path6219"
         d="m -363.78118,-273.33677 c 0,0 -14.39468,0.75762 -17.42513,4.92449"
         style="fill:none;stroke:#000000;stroke-width:5;stroke-linecap:round;stroke-linejoin:round;stroke-miterlimit:4;stroke-opacity:1;stroke-dasharray:none" />
      <path
         inkscape:connector-curvature="0"
         id="path6221"
         d="m -399.01026,-270.05377 -17.04632,-8.71257"
         style="fill:none;stroke:#000000;stroke-width:5;stroke-linecap:round;stroke-linejoin:round;stroke-miterlimit:4;stroke-opacity:1;stroke-dasharray:none" />
      <path
         transform="matrix(1.1978022,0,0,1.1978022,22.959187,11.930711)"
         d="m -278.57144,-320.31638 c 0,26.92389 -21.82612,48.75 -48.75,48.75 -26.92388,0 -48.75,-21.82611 -48.75,-48.75 0,-26.92388 21.82612,-48.75 48.75,-48.75 26.92388,0 48.75,21.82612 48.75,48.75 z"
         sodipodi:ry="48.75"
         sodipodi:rx="48.75"
         sodipodi:cy="-320.31638"
         sodipodi:cx="-327.32144"
         id="path6223"
         style="fill:#e5a001;fill-opacity:1;stroke:#000000;stroke-width:4.17431211;stroke-linecap:round;stroke-linejoin:round;stroke-miterlimit:4;stroke-opacity:1;stroke-dasharray:none"
         sodipodi:type="arc" />
      <path
         transform="matrix(0.95427127,0.56452186,-0.50689656,1.0627552,-207.59608,243.60453)"
         sodipodi:end="3.1415927"
         sodipodi:start="0"
         d="m -393.92024,-371.20926 c 0,4.93572 -4.00119,8.93691 -8.93691,8.93691 -4.93572,0 -8.93691,-4.00119 -8.93691,-8.93691 0,0 0,0 0,0 l 8.93691,0 z"
         sodipodi:ry="8.9369106"
         sodipodi:rx="8.9369106"
         sodipodi:cy="-371.20926"
         sodipodi:cx="-402.85715"
         id="path6225"
         style="fill:#000000;fill-opacity:1;stroke:#000000;stroke-width:4.3847661;stroke-linecap:round;stroke-linejoin:round;stroke-miterlimit:4;stroke-opacity:1;stroke-dasharray:none"
         sodipodi:type="arc" />
      <path
         transform="matrix(0.94770508,0.31914742,-0.31914742,0.94770508,-135.12153,94.23901)"
         sodipodi:end="3.1415927"
         sodipodi:start="0"
         d="m -348.21429,-367.28067 c 0,6.50907 -4.31725,11.78571 -9.64286,11.78571 -5.3256,0 -9.64285,-5.27664 -9.64285,-11.78571 0,0 0,0 0,0 l 9.64285,0 z"
         sodipodi:ry="11.785714"
         sodipodi:rx="9.6428576"
         sodipodi:cy="-367.28067"
         sodipodi:cx="-357.85715"
         id="path6245"
         style="fill:#000000;fill-opacity:1;stroke:#000000;stroke-width:5;stroke-linecap:round;stroke-linejoin:round;stroke-miterlimit:4;stroke-opacity:1;stroke-dasharray:none"
         sodipodi:type="arc" />
      <path
         sodipodi:nodetypes="csssscsssscscsssscssssssc"
         inkscape:connector-curvature="0"
         id="path6257"
         d="m -179.80715,-357.55823 c 0,0 -7.51859,-8.62499 -24.16924,-17.06686 -11.70188,-5.93285 -27.45034,-9.72317 -43.5828,-18.14031 -11.06689,-5.77416 -18.38296,-13.80301 -29.68567,-21.36166 -9.34936,-6.25235 -19.84179,-16.40324 -29.74351,-23.00149 -8.05924,-5.37048 -10.04503,-8.62407 -22.06882,-12.85864 0,0 -21.21321,6.9448 -25.38008,5.42957 -4.16688,-1.51523 -7.19734,-11.74303 -17.42514,-13.25826 -10.22779,-1.51522 -29.03658,3.26636 -31.06219,4.54569 -3.59866,2.27284 -41.28998,25.00128 -40.15356,32.95623 1.13642,7.95495 7.95495,15.53109 7.95495,15.53109 0,0 -7.95495,5.05741 -7.95495,9.84899 0,5.3033 -1.51523,3.03046 9.84899,11.74302 0,0 40.811,-43.36162 44.32044,-18.56155 0.98197,6.93924 7.91071,8.62066 13.55465,8.23851 10.68526,-0.7235 21.16308,-6.70187 25.27308,-6.34448 8.71257,0.75762 12.51563,0.0977 17.80395,10.98542 3.21986,6.62912 -7.45174,21.13475 -1.39082,34.20359 0,0 7.65333,1.37418 14.56285,5.24198 8.09105,4.52919 12.64911,9.84674 24.4284,11.03632 10.04967,1.0149 16.20631,6.57395 25.88008,6.92874 16.68397,0.6119 36.26243,-4.14393 46.62444,-13.80265 3.52999,-3.29041 10.19178,-3.93395 15.33445,-4.95203 6.36628,-1.26031 13.0726,-0.76985 18.14941,-1.24074 7.84283,-0.72744 11.516,-3.69637 8.88109,-6.10048 z"
         style="fill:#ffffff;fill-opacity:1;stroke:#000000;stroke-width:7;stroke-linecap:round;stroke-linejoin:round;stroke-miterlimit:4;stroke-opacity:1;stroke-dasharray:none" />
      <path
         sodipodi:nodetypes="csscc"
         inkscape:connector-curvature="0"
         id="path6259"
         d="m -243.55797,-346.42032 c 0,0 12.11406,5.89802 16.54215,3.9719 2.89525,-1.25937 -2.11349,-2.73188 3.61157,-4.67352 5.59059,-1.89603 17.66567,-3.20528 17.66567,-3.20528 z"
         style="fill:#000000;fill-opacity:1;stroke:#000000;stroke-width:7;stroke-linecap:round;stroke-linejoin:round;stroke-miterlimit:4;stroke-opacity:1;stroke-dasharray:none" />
      <path
         sodipodi:nodetypes="ccccsc"
         inkscape:connector-curvature="0"
         id="path6269"
         d="m -388.15111,60.139843 0,-94.701801 -42.42641,0 0,53.033009 c 0,0 -50.48882,28.303076 -39.01714,39.774757 7.54035,7.540346 81.44355,1.894035 81.44355,1.894035 z"
         style="fill:#fcfcfc;fill-opacity:1;stroke:#000000;stroke-width:10;stroke-linecap:butt;stroke-linejoin:round;stroke-miterlimit:4;stroke-opacity:1;stroke-dasharray:none" />
      <path
         sodipodi:nodetypes="ccccsc"
         inkscape:connector-curvature="0"
         id="path6269-8"
         d="m -336.28867,61.018832 0,-94.701801 -42.42641,0 0,53.033009 c 0,0 -50.48882,28.303076 -39.01714,39.774757 7.54035,7.540344 81.44355,1.894035 81.44355,1.894035 z"
         style="fill:#fcfcfc;fill-opacity:1;stroke:#000000;stroke-width:10;stroke-linecap:butt;stroke-linejoin:round;stroke-miterlimit:4;stroke-opacity:1;stroke-dasharray:none" />
    </g>
  </g>
</svg>
